<svg id="Слой_1" data-name="Слой 1" xmlns="http://www.w3.org/2000/svg" viewBox="0 0 1485.86 1381.99"><defs><style>.cls-1{fill:#facc15;opacity:0.7;}</style></defs><title>bg</title><path class="cls-1" d="M1460.46,2.91H673.72q-4.79,7.62-9.66,15.09C579.43,146.83,443.93,238.67,295.94,281.75c-66.3,19.3-138.12,30.79-191.4,74.72-54.81,45.2-80,117.32-90.89,187.52C.45,629,7.59,724.29,65.29,788.1,133.05,863,246.57,871.43,334.86,920.55c151.93,84.54,210.84,277.09,349.06,382.57,87.28,66.61,205.21,92.43,310.67,77.83,149.7-20.73,290.56-121.06,332.84-268,11.73-40.79,16.43-85,12.81-131.9-6.77-87.72-25.63-176.57-7.83-262.72,19.61-95,81.4-175.14,118.31-264.79,46-111.63,52.29-236.92,32.64-356C1478.1,65.61,1470.75,33.66,1460.46,2.91Z" transform="translate(-8 -2.91)"/></svg>